HIERARCHY
ROOT Hips
{
    OFFSET 0 0 0
    CHANNELS 6 Xposition Yposition Zposition Zrotation Yrotation Xrotation
    JOINT Chest
    {
        OFFSET 1.261052E-14 2.2 9.616505E-08
        CHANNELS 3 Zrotation Yrotation Xrotation
        JOINT Chest2
        {
            OFFSET 0 2.866667 0
            CHANNELS 3 Zrotation Yrotation Xrotation
            JOINT Neck
            {
                OFFSET 0 1.433333 0
                CHANNELS 3 Zrotation Yrotation Xrotation
                JOINT Head
                {
                    OFFSET -5.955877E-09 1.099063 -0.0454182
                    CHANNELS 3 Zrotation Yrotation Xrotation
                    End Site
                    {
                        OFFSET 1.742161E-07 0.215971 1.988305
                    }
                }
            }
            JOINT LeftCollar
            {
                OFFSET 0.6 0.333333 -7.86805E-08
                CHANNELS 3 Zrotation Yrotation Xrotation
                JOINT LeftShoulder
                {
                    OFFSET 1.399785 0.02316189 0.008118234
                    CHANNELS 3 Zrotation Yrotation Xrotation
                    JOINT LeftElbow
                    {
                        OFFSET 2.28797 0.1912422 -0.1364633
                        CHANNELS 3 Zrotation Yrotation Xrotation
                        JOINT LeftWrist
                        {
                            OFFSET 2.775776 0.232193 0.2848766
                            CHANNELS 3 Zrotation Yrotation Xrotation
                            End Site
                            {
                                OFFSET 0.9913487 0.0829258 0.1017416
                            }
                        }
                    }
                }
            }
            JOINT RightCollar
            {
                OFFSET -0.6 0.333333 7.86805E-08
                CHANNELS 3 Zrotation Yrotation Xrotation
                JOINT RightShoulder
                {
                    OFFSET -1.399785 0.02316189 0.008118574
                    CHANNELS 3 Zrotation Yrotation Xrotation
                    JOINT RightElbow
                    {
                        OFFSET -2.28797 0.1912422 -0.136463
                        CHANNELS 3 Zrotation Yrotation Xrotation
                        JOINT RightWrist
                        {
                            OFFSET -2.775776 0.232193 0.2848771
                            CHANNELS 3 Zrotation Yrotation Xrotation
                            End Site
                            {
                                OFFSET -0.9913487 0.0829258 0.1017418
                            }
                        }
                    }
                }
            }
        }
    }
    JOINT LeftHip
    {
        OFFSET 0.9032136 0.1000166 0.0003561888
        CHANNELS 3 Zrotation Yrotation Xrotation
        JOINT LeftKnee
        {
            OFFSET 0.09757304 -3.66482 0.4995777
            CHANNELS 3 Zrotation Yrotation Xrotation
            JOINT LeftAnkle
            {
                OFFSET 0.1137198 -4.272043 -0.4761516
                CHANNELS 3 Zrotation Yrotation Xrotation
                End Site
                {
                    OFFSET -1 0 8.754432E-08
                }
            }
        }
    }
    JOINT RightHip
    {
        OFFSET -0.9032136 0.1000166 0.0003564245
        CHANNELS 3 Zrotation Yrotation Xrotation
        JOINT RightKnee
        {
            OFFSET -0.09757292 -3.66482 0.4995777
            CHANNELS 3 Zrotation Yrotation Xrotation
            JOINT RightAnkle
            {
                OFFSET -0.1137199 -4.272043 -0.4761516
                CHANNELS 3 Zrotation Yrotation Xrotation
                End Site
                {
                    OFFSET -1 0 8.754432E-08
                }
            }
        }
    }
}
MOTION
Frames:    7
Frame Time:    0.016667
0.4964142    5.43424    -8.121465    171.6897    3.933826    -156.3878    -30.46422    25.06542    -24.94105    -5.77719    -2.525751    4.368531    -0.05881608    3.661433    -2.416705    -0.1284366    3.104946    -10.50217    7.131526    2.152944    0.3802453    60.8292    -53.10045    -158.0184    -19.97655    -78.57689    24.34126    -1.485676E-07    2.042502E-07    5.634463E-07    8.374537    7.186595    0.5026222    84.40125    -12.59787    -3.670958    13.72183    74.84826    17.91664    -7.242772E-07    -5.577884E-07    5.713798E-07    -30.54726    19.4379    -90.57951    1.653089    1.520645    94.86162    5.233192    -7.495279    -22.73368    -14.52611    19.95085    10.11006    -0.4960963    -1.126717    47.60777    -1.459257    7.292363    -9.517426
0.5071581    5.47383    -8.160406    172.5215    4.942537    -157.4233    -28.19941    22.88389    -24.65061    -6.101904    -2.191313    3.3655    -0.0734271    3.478781    -2.134229    -0.1691582    4.086502    -9.213537    7.319656    0.6758615    0.3551646    56.13591    -55.39631    -149.4502    -12.13015    -73.43123    16.26151    1.915291E-07    5.182055E-08    -4.309115E-07    7.756799    7.8796    0.4340185    84.56455    -3.387022    -3.39702    11.76003    73.06024    15.87479    -2.389797E-07    3.585649E-07    -1.578251E-07    -30.97613    22.72816    -89.82684    1.640575    1.521649    94.38991    5.101451    -7.403232    -23.21763    -14.44777    20.36328    10.22364    -0.5012523    -1.13141    47.86977    -1.692534    7.124786    -8.984257
0.5153579    5.522025    -8.202407    173.4205    5.940832    -158.5327    -25.67331    20.64957    -24.28647    -6.280282    -1.899403    2.276184    -0.08651412    3.332335    -1.809891    -0.213245    5.1463    -7.757365    7.286332    -0.8649555    0.3223836    48.63747    -57.02142    -138.318    -7.959871    -67.90182    11.84499    2.389499E-07    -1.228307E-08    1.890028E-06    7.021319    8.543395    0.3707224    84.41222    6.273858    -2.408564    9.51868    70.37411    13.51383    -1.444262E-06    2.177772E-07    -3.438339E-07    -31.21423    26.02658    -88.89893    1.624339    1.522796    93.7783    4.963055    -7.395864    -23.65704    -14.367    20.50876    10.32365    -0.5071675    -1.136734    48.16874    -1.723746    7.015786    -8.44684
0.52145    5.576584    -8.246059    174.3613    6.913775    -159.6774    -22.98032    18.43494    -23.82965    -6.293978    -1.651711    1.177885    -0.09649444    3.220927    -1.466639    -0.257491    6.206484    -6.241133    6.96245    -2.368227    0.2850182    37.94705    -57.62614    -123.9757    -5.697676    -62.85268    9.356788    -4.256889E-07    8.463718E-07    3.14878E-07    6.145077    9.118214    0.3144749    84.07287    15.6935    -0.8808146    7.856268    67.71397    11.73303    2.537716E-08    1.923806E-07    -4.308328E-07    -31.22914    29.22536    -87.81599    1.605137    1.523925    93.05549    4.830905    -7.489341    -24.02537    -14.25367    20.46099    10.4275    -0.5135192    -1.142398    48.48854    -1.599651    6.912014    -7.896182
0.5256437    5.635131    -8.290014    175.3183    7.84613    -160.822    -20.22441    16.30644    -23.26176    -6.14812    -1.442208    0.1491836    -0.1023044    3.132697    -1.129227    -0.2979454    7.172216    -4.774956    6.357743    -3.735408    0.2481598    24.88842    -55.71434    -105.6899    -4.32191    -58.35678    7.776916    -2.763143E-07    8.512449E-07    4.266643E-07    5.08654    9.527855    0.2650899    83.6072    24.25374    0.8067583    7.21874    66.47945    11.04043    2.869973E-07    2.329757E-07    -6.942113E-07    -30.99191    32.21135    -86.5865    1.583814    1.5249    92.25339    4.72309    -7.692432    -24.3028    -14.04294    20.34192    10.567    -0.5200318    -1.148135    48.81465    -1.342866    6.708827    -7.331301
0.5279334    5.695127    -8.332992    176.2654    8.722569    -161.9336    -17.46207    14.20216    -22.55323    -5.868284    -1.244639    -0.7501932    -0.1050535    3.052553    -0.8231108    -0.3344945    8.041136    -3.464264    5.531032    -4.904301    0.2138881    13.51007    -50.69102    -86.33743    -3.365062    -54.13442    6.624851    3.221101E-07    1.572455E-06    -2.928602E-07    3.840926    9.669378    0.2208167    82.93877    31.56409    2.323573    7.90004    67.79374    11.78035    1.24046E-06    -1.149515E-07    -8.196613E-07    -30.47811    34.86711    -85.2113    1.561319    1.525603    91.40778    4.661332    -8.007985    -24.47746    -13.76148    20.16373    10.73686    -0.5264601    -1.153738    49.13499    -1.026549    6.434252    -6.76248
0.5281225    5.753867    -8.373796    177.1762    9.52799    -162.982    -14.73854    12.00299    -21.68206    -5.490785    -1.026868    -1.472945    -0.1067159    2.963832    -0.5725913    -0.368696    8.850819    -2.404949    4.551698    -5.850156    0.1826482    6.143261    -44.20791    -68.84065    -2.655657    -50.09188    5.724523    1.103835E-06    6.915257E-07    -1.665062E-06    2.429423    9.512766    0.1818244    81.93604    38.39478    3.658627    10.08669    71.13677    14.11576    -3.906026E-08    6.175752E-07    9.251038E-07    -29.67083    37.07143    -83.68989    1.538715    1.525976    90.55833    4.668939    -8.434459    -24.54537    -13.44124    19.93978    10.92694    -0.5326235    -1.159046    49.44072    -0.7221247    6.123209    -6.210443
